# xmcd CD database file
#
# Track frame offsets:
#	150
#	13619
#	40657
#	60915
#	79351
#	86620
#	110640
#	142649
#	155275
#	185918
#
# Disc length: 2691 seconds
#
# Revision: 2
# Processed by: cddbd v1.5.2PL0 Copyright (c) Steve Scherf et al.
# Submitted via: CDex 1.70beta3
#
DISCID=750a810a
DTITLE=発熱巫女～ず - フォーリンサウンド
DYEAR=2009
DGENRE=東方アレンジ系
TTITLE0=Against The Earth
TTITLE1=R.I.P.
TTITLE2=Fall Of Fall (swing vocal ver.)
TTITLE3=Come as You Are
TTITLE4=Intermezzo Night　～Sweet and Lowdown～
TTITLE5=Duas Eclipses
TTITLE6=Border Of Life (piano house mix.)
TTITLE7=Intermezzo Dawn　～smiling me～
TTITLE8=甘い刻
TTITLE9=東方萃夢想 (hatsunetsu mix.)
EXTD=YEAR: 2009
EXTT0=
EXTT1=
EXTT2=
EXTT3=
EXTT4=
EXTT5=
EXTT6=
EXTT7=
EXTT8=
EXTT9=
PLAYORDER=
